# xmcd
#
# Track frame offsets: 
#        150
#        25774
#        47189
#        63754
#        80434
#        97676
#        112783
#        127098
#        144410
#        162490
#        181125
#        198561
#        213687
#        234710
#
# Disc length: 3350 seconds
#
# Revision: 1
# Processed by: cddbd v1.5.2PL0 Copyright (c) Steve Scherf et al.
# Submitted via: ExactAudioCopyFreeDBPlugin 1.0
#
DISCID=bc0d140e
DTITLE=达瓦卓玛 - DTS51阿兰情歌
DYEAR=2000
DGENRE=DTS
TTITLE0=醉清风
TTITLE1=忍不住眼泪
TTITLE2=桅子花开
TTITLE3=桅子花开
TTITLE4=玻璃杯
TTITLE5=宁夏
TTITLE6=十年
TTITLE7=你到底爱谁
TTITLE8=童话
TTITLE9=最浪漫的事
TTITLE10=翅膀
TTITLE11=遇见
TTITLE12=一辈子的孤独
TTITLE13=被风吹过的夏天
EXTD=
EXTT0=
EXTT1=
EXTT2=
EXTT3=
EXTT4=
EXTT5=
EXTT6=
EXTT7=
EXTT8=
EXTT9=
EXTT10=
EXTT11=
EXTT12=
EXTT13=
PLAYORDER=
